<svg aria-hidden="true" style="position: absolute; width: 0; height: 0; overflow: hidden;" version="1.1" xmlns="http://www.w3.org/2000/svg" xmlns:xlink="http://www.w3.org/1999/xlink">
<defs>
<symbol id="sale" viewBox="0 0 32 32">
<path d="M28 31h-24c-1.657 0-3-1.344-3-3v-14c0-1.657 1.343-3 3-3h2l8.493-6.518c-0.038-0.155-0.064-0.315-0.064-0.482 0-1.104 0.896-2 2-2s1.999 0.896 1.999 2c0 0.359-0.102 0.692-0.269 0.984l7.841 6.016h2c1.656 0 3 1.343 3 3v14c0 1.656-1.344 3-3 3zM17.071 24.583h4.031v-0.758h-3.18v-5.688h-0.852v6.446zM11.303 24.583l0.706-1.953h2.708l0.742 1.953h0.972l-2.628-6.445h-0.924l-2.478 6.445h0.902zM5.342 18.894c-0.184 0.284-0.276 0.589-0.276 0.914 0 0.297 0.075 0.564 0.226 0.804s0.38 0.439 0.687 0.602c0.236 0.126 0.649 0.26 1.239 0.402s0.971 0.247 1.144 0.314c0.269 0.104 0.462 0.229 0.581 0.38s0.179 0.326 0.179 0.528c0 0.198-0.061 0.383-0.182 0.552s-0.306 0.302-0.555 0.399c-0.248 0.098-0.534 0.146-0.858 0.146-0.365 0-0.693-0.063-0.985-0.192-0.293-0.127-0.508-0.295-0.646-0.503s-0.228-0.474-0.266-0.797l-0.805 0.070c0.012 0.431 0.13 0.816 0.354 1.157s0.532 0.598 0.925 0.768c0.394 0.17 0.881 0.255 1.463 0.255 0.458 0 0.871-0.084 1.238-0.253 0.367-0.168 0.648-0.402 0.844-0.706s0.294-0.625 0.294-0.968c0-0.345-0.090-0.649-0.269-0.914s-0.456-0.484-0.832-0.656c-0.259-0.117-0.733-0.254-1.423-0.41-0.691-0.157-1.118-0.311-1.281-0.461-0.167-0.148-0.25-0.339-0.25-0.57 0-0.268 0.118-0.495 0.353-0.684s0.609-0.284 1.123-0.284c0.494 0 0.867 0.104 1.119 0.31 0.253 0.207 0.4 0.513 0.444 0.917l0.82-0.062c-0.015-0.378-0.12-0.716-0.315-1.014s-0.476-0.524-0.84-0.678-0.784-0.23-1.261-0.23c-0.433 0-0.826 0.073-1.18 0.22-0.356 0.146-0.625 0.36-0.809 0.644zM17.678 5.55c-0.344 0.277-0.774 0.45-1.249 0.45-0.662 0-1.244-0.325-1.608-0.821l-7.821 5.821h18l-7.322-5.45zM26.936 23.825h-3.953v-2.195h3.562v-0.758h-3.562v-1.977h3.805v-0.758h-4.656v6.445h4.805v-0.757zM13.314 18.81c0.104 0.353 0.256 0.8 0.457 1.343l0.679 1.782h-2.199l0.715-1.887c0.147-0.407 0.263-0.82 0.348-1.238z"></path>
</symbol>
<symbol id="phone" viewBox="0 0 32 32">
<path d="M25 0h-20c-1.65 0-3 1.35-3 3v26c0 1.65 1.35 3 3 3h20c1.65 0 3-1.35 3-3v-26c0-1.65-1.35-3-3-3zM15 31c-0.552 0-1-0.448-1-1s0.448-1 1-1 1 0.448 1 1-0.448 1-1 1zM24 28h-18v-24h18v24z"></path>
</symbol>
<symbol id="components" viewBox="0 0 48 48">
<path d="M6 38c0 2.21 1.79 4 4 4h1v3.5c0 1.38 1.12 2.5 2.5 2.5s2.5-1.12 2.5-2.5l-0-3.5h5v3.5c0 1.38 1.12 2.5 2.5 2.5s2.5-1.12 2.5-2.5l-0-3.5h5v3.5c0 1.38 1.12 2.5 2.5 2.5s2.5-1.12 2.5-2.5v-3.5h1c2.21 0 4-1.79 4-4v-1h3.5c1.38 0 2.5-1.12 2.5-2.5s-1.12-2.5-2.5-2.5h-3.5v-5h3.5c1.38 0 2.5-1.12 2.5-2.5s-1.12-2.5-2.5-2.5h-3.5v-5h3.5c1.38 0 2.5-1.12 2.5-2.5s-1.12-2.5-2.5-2.5h-3.5v-1c0-2.21-1.79-4-4-4h-1l0-3.5c0-1.38-1.12-2.5-2.5-2.5s-2.5 1.12-2.5 2.5v3.5h-5l-0-3.5c0-1.38-1.12-2.5-2.5-2.5s-2.5 1.12-2.5 2.5v3.5h-5v-3.5c0-1.38-1.12-2.5-2.5-2.5s-2.5 1.12-2.5 2.5v3.5h-1c-2.21 0-4 1.79-4 4v1l-3.5-0c-1.38 0-2.5 1.12-2.5 2.5s1.12 2.5 2.5 2.5h3.5v5l-3.5 0c-1.38 0-2.5 1.12-2.5 2.5s1.12 2.5 2.5 2.5h3.5v5h-3.5c-1.38 0-2.5 1.12-2.5 2.5s1.12 2.5 2.5 2.5h3.5v1zM31 19.2v10.6c0 1.22-0.98 2.2-2.2 2.2l-10.6-0c-1.22 0-2.2-0.98-2.2-2.2l0-10.6c0-1.22 0.98-2.2 2.2-2.2h10.6c1.22 0 2.2 0.98 2.2 2.2z"></path>
</symbol>
<symbol id="office" viewBox="0 0 32 32">
<path d="M19.8 0l-17.133 6.667v19.2l6.133-2.6v-15.133l11.133-2.533v22.467l-17.267-2.2 17.133 6.133 9.533-3.067v-25.733z"></path>
</symbol>
<symbol id="gaming" viewBox="0 0 20 20">
<path d="M19.444 9.361c-0.882-4.926-2.854-6.379-3.903-6.379-1.637 0-2.057 1.217-5.541 1.258-3.484-0.041-3.904-1.258-5.541-1.258-1.049 0-3.022 1.453-3.904 6.379-0.503 2.812-1.049 7.010 0.252 7.514 1.619 0.627 2.168-0.941 3.946-2.266 1.805-1.343 2.671-1.659 5.247-1.659s3.442 0.316 5.247 1.659c1.778 1.324 2.327 2.893 3.946 2.266 1.301-0.504 0.755-4.701 0.251-7.514zM6 10c-1.105 0-2-0.896-2-2s0.895-2 2-2 2 0.895 2 2c0 1.104-0.896 2-2 2zM13 10c-0.553 0-1-0.447-1-1s0.447-1 1-1c0.553 0 1 0.447 1 1s-0.447 1-1 1zM15 8c-0.553 0-1-0.447-1-1s0.447-1 1-1c0.553 0 1 0.447 1 1s-0.447 1-1 1z"></path>
</symbol>
<symbol id="home" viewBox="0 0 24 24">
<path d="M9.984 20.016h-4.969v-8.016h-3l9.984-9 9.984 9h-3v8.016h-4.969v-6h-4.031v6z"></path>
</symbol>
<symbol id="for-home" viewBox="0 0 32 32">
<path d="M32 18.451l-16-12.42-16 12.42v-5.064l16-12.42 16 12.42zM28 18v12h-8v-8h-8v8h-8v-12l12-9z"></path>
</symbol>
<symbol id="pc" viewBox="0 0 32 32">
<path d="M30 24c0 0-8.25 0-10 0s2 6 2 6c0 1.104-0.896 2-2 2h-8c-1.104 0-2-0.896-2-2 0 0 3.812-6 2-6s-10 0-10 0c-1.104 0-2-0.896-2-2v-20c0-1.104 0.896-2 2-2h28c1.104 0 2 0.896 2 2v20c0 1.104-0.896 2-2 2zM16 23c1.104 0 2-0.896 2-2s-0.896-2-2-2-2 0.896-2 2 0.896 2 2 2zM30 4c0-1.104-0.896-2-2-2h-24c-1.104 0-2 0.896-2 2v12c0 1.104 0.896 2 2 2h24c1.104 0 2-0.896 2-2v-12z"></path>
</symbol>
<symbol id="tv" viewBox="0 0 32 32">
<path d="M30.662 9.003c-2.775-0.399-5.731-0.688-8.815-0.851l5.153-5.153-2-2-7.017 7.017c-0.656-0.011-1.317-0.017-1.983-0.017v0l-8-8-2 2 6.069 6.069c-3.779 0.133-7.386 0.454-10.731 0.935-0.86 3.366-1.338 7.086-1.338 10.997s0.477 7.63 1.338 10.997c4.489 0.645 9.448 1.003 14.662 1.003s10.173-0.358 14.662-1.003c0.86-3.366 1.338-7.086 1.338-10.997s-0.477-7.63-1.338-10.997zM26.997 27.331c-3.367 0.43-7.086 0.669-10.997 0.669s-7.63-0.239-10.997-0.669c-0.645-2.244-1.003-4.724-1.003-7.331s0.358-5.087 1.003-7.331c3.366-0.43 7.086-0.669 10.997-0.669s7.63 0.239 10.996 0.669c0.645 2.244 1.004 4.724 1.004 7.331s-0.358 5.087-1.003 7.331z"></path>
</symbol>
<symbol id="steam" viewBox="0 0 32 32">
<path d="M22 9c0-1.657 1.343-3 3-3s3 1.343 3 3c0 1.657-1.343 3-3 3s-3-1.343-3-3zM29.95 4.050c-2.734-2.734-7.166-2.734-9.9 0-1.112 1.112-1.771 2.505-1.979 3.95v0l-6.397 9.695c-0.86 0.044-1.712 0.263-2.499 0.657l-4.934-3.857c-1.142-0.893-2.792-0.691-3.685 0.451s-0.691 2.792 0.452 3.685l4.873 3.809c-0.53 2.087 0.021 4.392 1.654 6.025 2.466 2.466 6.464 2.466 8.929 0 1.515-1.515 2.098-3.607 1.752-5.568l7.783-6.968c1.445-0.207 2.838-0.867 3.95-1.979 2.734-2.734 2.734-7.166 0-9.899zM12 28.209c-2.325 0-4.209-1.884-4.209-4.209 0-0.022 0.001-0.044 0.002-0.066l2.091 1.634c0.48 0.375 1.049 0.557 1.615 0.557 0.78 0 1.552-0.346 2.070-1.009 0.893-1.142 0.691-2.792-0.451-3.685l-1.984-1.551c0.28-0.059 0.57-0.090 0.868-0.090 2.325 0 4.209 1.884 4.209 4.209s-1.885 4.209-4.209 4.209zM25 14c-2.761 0-5-2.239-5-5s2.239-5 5-5 5 2.239 5 5-2.239 5-5 5z"></path>
</symbol>
<symbol id="appleinc" viewBox="0 0 32 32">
<path d="M24.734 17.003c-0.040-4.053 3.305-5.996 3.454-6.093-1.88-2.751-4.808-3.127-5.851-3.171-2.492-0.252-4.862 1.467-6.127 1.467-1.261 0-3.213-1.43-5.28-1.392-2.716 0.040-5.221 1.579-6.619 4.012-2.822 4.897-0.723 12.151 2.028 16.123 1.344 1.944 2.947 4.127 5.051 4.049 2.026-0.081 2.793-1.311 5.242-1.311s3.138 1.311 5.283 1.271c2.18-0.041 3.562-1.981 4.897-3.931 1.543-2.255 2.179-4.439 2.216-4.551-0.048-0.022-4.252-1.632-4.294-6.473zM20.705 5.11c1.117-1.355 1.871-3.235 1.665-5.11-1.609 0.066-3.559 1.072-4.713 2.423-1.036 1.199-1.942 3.113-1.699 4.951 1.796 0.14 3.629-0.913 4.747-2.264z"></path>
</symbol>
</defs>
</svg>
