<svg aria-hidden="true" style="position: absolute; width: 0; height: 0; overflow: hidden;" version="1.1" xmlns="http://www.w3.org/2000/svg" xmlns:xlink="http://www.w3.org/1999/xlink">
<defs>
<symbol id="theme-black" viewBox="0 0 18 18">
<path d="M7.246 3.255c-0.251 0.828-0.322 1.71-0.198 2.597 0.366 2.63 2.455 4.723 5.080 5.089 0.282 0.040 0.568 0.060 0.85 0.060 0.599 0 1.184-0.087 1.742-0.257-0.674 2.215-2.642 3.926-4.973 4.21-0.254 0.031-0.51 0.047-0.762 0.047-1.713 0-3.349-0.738-4.486-2.024-1.152-1.304-1.669-2.987-1.457-4.739 0.284-2.335 1.992-4.307 4.204-4.982zM8.985 1c-0.362 0-0.731 0.024-1.104 0.075-3.543 0.48-6.388 3.364-6.82 6.92-0.592 4.867 3.184 9.005 7.924 9.005 0.33 0 0.665-0.020 1.003-0.062 3.549-0.433 6.428-3.283 6.907-6.833 0.052-0.383 0.076-0.761 0.075-1.134-0.002-0.583-0.482-0.972-0.996-0.972-0.209 0-0.424 0.065-0.614 0.207-0.665 0.498-1.489 0.793-2.383 0.793-0.188 0-0.38-0.013-0.574-0.040-1.732-0.242-3.137-1.649-3.378-3.385-0.155-1.115 0.149-2.156 0.751-2.963 0.415-0.657 0.025-1.609-0.764-1.612-0.009 0-0.018 0-0.028 0v0z"></path>
</symbol>
<symbol id="theme-white" viewBox="0 0 24 24">
<path d="M18 12c0-1.657-0.673-3.158-1.757-4.243s-2.586-1.757-4.243-1.757-3.158 0.673-4.243 1.757-1.757 2.586-1.757 4.243 0.673 3.158 1.757 4.243 2.586 1.757 4.243 1.757 3.158-0.673 4.243-1.757 1.757-2.586 1.757-4.243zM16 12c0 1.105-0.447 2.103-1.172 2.828s-1.723 1.172-2.828 1.172-2.103-0.447-2.828-1.172-1.172-1.723-1.172-2.828 0.447-2.103 1.172-2.828 1.723-1.172 2.828-1.172 2.103 0.447 2.828 1.172 1.172 1.723 1.172 2.828zM11 1v2c0 0.552 0.448 1 1 1s1-0.448 1-1v-2c0-0.552-0.448-1-1-1s-1 0.448-1 1zM11 21v2c0 0.552 0.448 1 1 1s1-0.448 1-1v-2c0-0.552-0.448-1-1-1s-1 0.448-1 1zM3.513 4.927l1.42 1.42c0.391 0.391 1.024 0.391 1.414 0s0.391-1.024 0-1.414l-1.42-1.42c-0.391-0.391-1.024-0.391-1.414 0s-0.391 1.024 0 1.414zM17.653 19.067l1.42 1.42c0.391 0.391 1.024 0.391 1.414 0s0.391-1.024 0-1.414l-1.42-1.42c-0.391-0.391-1.024-0.391-1.414 0s-0.391 1.024 0 1.414zM1 13h2c0.552 0 1-0.448 1-1s-0.448-1-1-1h-2c-0.552 0-1 0.448-1 1s0.448 1 1 1zM21 13h2c0.552 0 1-0.448 1-1s-0.448-1-1-1h-2c-0.552 0-1 0.448-1 1s0.448 1 1 1zM4.927 20.487l1.42-1.42c0.391-0.391 0.391-1.024 0-1.414s-1.024-0.391-1.414 0l-1.42 1.42c-0.391 0.391-0.391 1.024 0 1.414s1.024 0.391 1.414 0zM19.067 6.347l1.42-1.42c0.391-0.391 0.391-1.024 0-1.414s-1.024-0.391-1.414 0l-1.42 1.42c-0.391 0.391-0.391 1.024 0 1.414s1.024 0.391 1.414 0z"></path>
</symbol>
</defs>
</svg>
